<svg width="200" height="25" viewBox="0 0 200 25" fill="none" xmlns="http://www.w3.org/2000/svg">
<mask id="mask0_11_1699" style="mask-type:alpha" maskUnits="userSpaceOnUse" x="0" y="0" width="24" height="25">
<rect y="0.628052" width="24" height="24" fill="#C4C4C4"/>
</mask>
<g mask="url(#mask0_11_1699)">
<path d="M19.75 2.62805H4.25C3.01 2.62805 2 3.63805 2 4.87805V20.3781C2 21.6181 3.01 22.6281 4.25 22.6281H19.75C20.99 22.6281 22 21.6181 22 20.3781V4.87805C22 3.63805 20.99 2.62805 19.75 2.62805ZM4.25 4.12805H19.75C20.163 4.12805 20.5 4.46505 20.5 4.87805V14.5541L16.642 10.6961C16.502 10.5561 16.312 10.4761 16.112 10.4761H16.109C15.909 10.4761 15.716 10.5561 15.577 10.7001L11.26 15.0841L9.44701 13.2781C9.30701 13.1381 9.11701 13.0581 8.91701 13.0581C8.72401 13.0281 8.522 13.1381 8.382 13.2851L3.5 18.2701V4.87805C3.5 4.46505 3.837 4.12805 4.25 4.12805ZM3.506 20.4081L8.924 14.8741L15.206 21.1281H4.25C3.848 21.1281 3.523 20.8061 3.506 20.4081ZM19.75 21.1281H17.33L12.323 16.1411L16.115 12.291L20.5 16.6751V20.3781C20.5 20.7911 20.163 21.1281 19.75 21.1281Z" fill="#1D9BF0"/>
<path d="M8.86816 10.479C9.72016 10.479 10.4102 9.78872 10.4102 8.93702C10.4102 8.08542 9.72016 7.39502 8.86816 7.39502C8.01616 7.39502 7.32617 8.08542 7.32617 8.93702C7.32617 9.78872 8.01616 10.479 8.86816 10.479Z" fill="#1D9BF0"/>
</g>
<mask id="mask1_11_1699" style="mask-type:alpha" maskUnits="userSpaceOnUse" x="44" y="0" width="24" height="25">
<rect x="44" y="0.628052" width="24" height="24" fill="#C4C4C4"/>
</mask>
<g mask="url(#mask1_11_1699)">
<path d="M62.7499 11.1081V9.40808H58.3499V15.8081H60.0499V13.8081H62.0499V12.1081H60.0499V11.1081H62.7499ZM55.4499 9.40808H57.1499V15.8081H55.4499V9.40808ZM51.8499 11.0081C52.2499 11.0081 52.7499 11.2081 53.0499 11.5081L54.2499 10.5081C53.6499 9.80808 52.7499 9.40808 51.8499 9.40808C50.0499 9.40808 48.6499 10.8081 48.6499 12.6081C48.6499 14.4081 50.0499 15.8081 51.8499 15.8081C52.8499 15.8081 53.6499 15.4081 54.2499 14.7081V12.2081H51.4499V13.4081H52.6499V14.0081C52.4499 14.1081 52.1499 14.2081 51.8499 14.2081C50.9499 14.2081 50.2499 13.5081 50.2499 12.6081C50.2499 11.8081 50.9499 11.0081 51.8499 11.0081Z" fill="#1D9BF0"/>
<path d="M64.25 2.62805H47.25C46.01 2.62805 45 3.63505 45 4.87505V20.382C45 21.6201 46.01 22.628 47.25 22.628H64.25C65.49 22.628 66.5 21.6201 66.5 20.382V4.87505C66.5 3.63505 65.49 2.62805 64.25 2.62805ZM65 20.382C65 20.792 64.664 21.128 64.25 21.128H47.25C46.836 21.128 46.5 20.792 46.5 20.382V4.87505C46.5 4.46305 46.836 4.12805 47.25 4.12805H64.25C64.664 4.12805 65 4.46305 65 4.87505V20.382Z" fill="#1D9BF0"/>
</g>
<mask id="mask2_11_1699" style="mask-type:alpha" maskUnits="userSpaceOnUse" x="88" y="0" width="24" height="25">
<rect x="88" y="0.628052" width="24" height="24" fill="#C4C4C4"/>
</mask>
<g mask="url(#mask2_11_1699)">
<path d="M108.222 10.18H106.888C106.903 10.09 106.916 9.99805 106.916 9.90305V7.59005C106.916 6.61005 106.119 5.81305 105.138 5.81305H91.5V4.37805C91.5 3.96405 91.164 3.62805 90.75 3.62805C90.336 3.62805 90 3.96405 90 4.37805V21.8501C90 22.2651 90.336 22.6001 90.75 22.6001C91.164 22.6001 91.5 22.2651 91.5 21.8501V20.416H102.056C103.036 20.416 103.834 19.619 103.834 18.639V16.326C103.834 16.231 103.82 16.139 103.806 16.048H108.223C109.203 16.048 110.001 15.25 110.001 14.2701V11.96C110.001 10.977 109.204 10.18 108.223 10.18H108.222ZM105.14 7.31305C105.292 7.31305 105.417 7.43705 105.417 7.59005V9.90005C105.417 10.0541 105.292 10.18 105.139 10.18H91.5V7.31005H105.14V7.31305ZM102.333 16.327V18.639C102.333 18.792 102.208 18.916 102.055 18.916H91.5V16.048H102.056C102.209 16.048 102.333 16.174 102.333 16.328V16.327ZM108.5 14.2701C108.5 14.423 108.375 14.5471 108.222 14.5471H91.5V11.68H108.222C108.375 11.68 108.5 11.8041 108.5 11.9571V14.2701Z" fill="#1D9BF0"/>
</g>
<mask id="mask3_11_1699" style="mask-type:alpha" maskUnits="userSpaceOnUse" x="132" y="0" width="24" height="25">
<rect x="132" y="0.628052" width="24" height="24" fill="#C4C4C4"/>
</mask>
<g mask="url(#mask3_11_1699)">
<path d="M143.75 23.1281C137.822 23.1281 133 18.3061 133 12.3781C133 6.45005 137.822 1.62805 143.75 1.62805C149.678 1.62805 154.5 6.45005 154.5 12.3781C154.5 18.3061 149.678 23.1281 143.75 23.1281ZM143.75 3.12805C138.65 3.12805 134.5 7.27805 134.5 12.3781C134.5 17.4781 138.65 21.6281 143.75 21.6281C148.85 21.6281 153 17.4781 153 12.3781C153 7.27805 148.85 3.12805 143.75 3.12805Z" fill="#1D9BF0"/>
<path d="M143.75 17.4931C141.858 17.4931 140.117 16.5431 139.094 14.9491C138.87 14.6011 138.971 14.1391 139.32 13.9141C139.668 13.6881 140.132 13.7901 140.356 14.1401C141.103 15.3021 142.372 15.9951 143.751 15.9951C145.13 15.9951 146.399 15.3021 147.147 14.1411C147.371 13.7911 147.835 13.6911 148.183 13.9161C148.533 14.1401 148.633 14.6041 148.409 14.9521C147.384 16.5461 145.643 17.4971 143.751 17.4971L143.75 17.4931Z" fill="#1D9BF0"/>
<path d="M146.488 11.314C147.304 11.314 147.966 10.6523 147.966 9.83603C147.966 9.01973 147.304 8.35803 146.488 8.35803C145.671 8.35803 145.01 9.01973 145.01 9.83603C145.01 10.6523 145.671 11.314 146.488 11.314Z" fill="#1D9BF0"/>
<path d="M141.012 11.314C141.828 11.314 142.49 10.6523 142.49 9.83603C142.49 9.01973 141.828 8.35803 141.012 8.35803C140.196 8.35803 139.534 9.01973 139.534 9.83603C139.534 10.6523 140.196 11.314 141.012 11.314Z" fill="#1D9BF0"/>
</g>
<mask id="mask4_11_1699" style="mask-type:alpha" maskUnits="userSpaceOnUse" x="176" y="0" width="24" height="25">
<rect x="176" y="0.628052" width="24" height="24" fill="#C4C4C4"/>
</mask>
<g mask="url(#mask4_11_1699)">
</g>
<g clip-path="url(#clip0_11_1699)">
<path d="M138.1 18.628C138 18.528 138 18.528 138 18.428C138.1 18.428 138.1 18.528 138.1 18.628ZM194 2.82803H192.7V2.52803C192.7 2.12803 192.4 1.72803 191.9 1.72803C191.5 1.72803 191.1 2.02803 191.1 2.52803V2.82803H183.7V2.52803C183.7 2.12803 183.4 1.72803 182.9 1.72803C182.5 1.72803 182.1 2.02803 182.1 2.52803V2.82803H180.8C179.4 2.82803 178.3 3.92803 178.3 5.32803V18.428C178.3 19.828 179.4 20.928 180.8 20.928H183.7C184.1 20.928 184.5 20.628 184.5 20.128C184.5 19.728 184.2 19.328 183.7 19.328H180.8C180.2 19.328 179.8 18.828 179.8 18.328V8.52803C179.8 8.22803 180.2 7.82803 180.8 7.82803H194C194.6 7.82803 195 8.22803 195 8.52803V10.328C195 10.728 195.3 11.128 195.8 11.128C196.2 11.128 196.6 10.828 196.6 10.328V5.32803C196.5 3.92803 195.4 2.82803 194 2.82803ZM195 6.52803C194.7 6.42803 194.3 6.32803 194 6.32803H180.8C180.4 6.32803 180.1 6.42803 179.8 6.52803V5.32803C179.8 4.72803 180.3 4.32803 180.8 4.32803H182.1V4.82803C182.1 5.22803 182.4 5.62803 182.9 5.62803C183.3 5.62803 183.7 5.32803 183.7 4.82803V4.32803H191.2V4.82803C191.2 5.22803 191.5 5.62803 192 5.62803C192.4 5.62803 192.8 5.32803 192.8 4.82803V4.32803H194C194.6 4.32803 195 4.82803 195 5.32803V6.52803Z" fill="#1D9BF0"/>
<path d="M191.5 11.028C188.1 11.028 185.3 13.828 185.3 17.228C185.3 20.628 188.1 23.428 191.5 23.428C194.9 23.428 197.7 20.628 197.7 17.228C197.7 13.828 194.9 11.028 191.5 11.028ZM191.5 22.028C188.9 22.028 186.8 19.928 186.8 17.328C186.8 14.728 188.9 12.628 191.5 12.628C194.1 12.628 196.2 14.728 196.2 17.328C196.2 19.828 194.1 22.028 191.5 22.028Z" fill="#1D9BF0"/>
<path d="M194.9 19.328C194.8 19.528 194.5 19.728 194.3 19.728C194.2 19.728 194 19.728 193.9 19.628L190.8 17.628V14.628C190.8 14.228 191.1 13.828 191.6 13.828C192 13.828 192.4 14.128 192.4 14.628V16.828L194.8 18.328C195 18.528 195.1 18.928 194.9 19.328Z" fill="#1D9BF0"/>
</g>
<defs>
<clipPath id="clip0_11_1699">
<rect width="24" height="24" fill="white" transform="translate(176 0.628052)"/>
</clipPath>
</defs>
</svg>
